<?xml version="1.0" encoding="iso-8859-1"?>
<!-- Generator: Adobe Illustrator 19.0.0, SVG Export Plug-In . SVG Version: 6.00 Build 0)  -->
<svg xmlns="http://www.w3.org/2000/svg" xmlns:xlink="http://www.w3.org/1999/xlink" version="1.1" id="Layer_1" x="0px" y="0px" viewBox="0 0 512.002 512.002" style="enable-background:new 0 0 512.002 512.002;" xml:space="preserve" width="512px" height="512px">
<g>
	<g>
		<g>
			<path d="M354.504,271.245l-76.374,76.374c-4.08,4.081-4.08,10.697,0,14.778c2.041,2.041,4.713,3.06,7.388,3.06     c2.674,0,5.348-1.02,7.389-3.06l76.374-76.374c4.08-4.081,4.08-10.697,0-14.778C365.2,267.164,358.585,267.164,354.504,271.245z" fill="#FFFFFF"/>
			<path d="M391.74,248.785c-4.08-4.079-10.732-4.046-14.812,0.036c-4.08,4.081-4.08,10.697,0,14.778     c2.041,2.041,4.713,3.06,7.388,3.06s5.349-1.02,7.389-3.062l0.07-0.07C395.856,259.447,395.821,252.865,391.74,248.785z" fill="#FFFFFF"/>
		</g>
	</g>
</g>
<g>
	<g>
		<path d="M453.792,71.868l-0.173-0.177c-4.059-4.104-10.675-4.138-14.778-0.08c-4.102,4.058-4.138,10.674-0.079,14.777l0.095,0.097    l0.006,0.005c2.046,2.091,4.753,3.139,7.465,3.139c2.636,0,5.276-0.993,7.309-2.982C457.76,82.61,457.828,75.992,453.792,71.868z" fill="#FFFFFF"/>
	</g>
</g>
<g>
	<g>
		<path d="M457.783,97.858c-5.708-0.844-11.019,3.105-11.86,8.815c-1.646,11.172-11.422,19.596-22.741,19.596    c-12.674,0.001-22.986-10.311-22.987-22.985c0-11.269,8.048-20.801,19.136-22.665c5.69-0.957,9.528-6.347,8.571-12.037    c-0.957-5.69-6.342-9.527-12.037-8.572c-21.189,3.563-36.568,21.762-36.568,43.275c0.001,24.198,19.689,43.883,43.886,43.883    c21.604,0,40.269-16.099,43.417-37.448C467.438,104.008,463.492,98.699,457.783,97.858z" fill="#FFFFFF"/>
	</g>
</g>
<g>
	<g>
		<path d="M351.351,19.598c-14.79-14.789-35.179-21.725-55.946-19.026c-5.723,0.743-9.758,5.985-9.015,11.708    c0.744,5.723,5.985,9.761,11.709,9.015c14.279-1.853,28.306,2.912,38.474,13.081c8.685,8.683,13.466,20.228,13.466,32.508    c0,12.28-4.781,23.825-13.466,32.509c-8.683,8.683-20.228,13.465-32.508,13.465s-23.824-4.782-32.508-13.466    c-10.422-10.421-15.143-24.771-12.954-39.37c0.856-5.706-3.077-11.027-8.784-11.882c-5.706-0.855-11.027,3.077-11.882,8.784    c-3.135,20.911,3.91,42.311,18.844,57.245c12.63,12.631,29.424,19.587,47.286,19.587c17.861,0,34.655-6.956,47.285-19.586    c12.63-12.63,19.586-29.424,19.586-47.286S363.981,32.229,351.351,19.598z" fill="#FFFFFF"/>
	</g>
</g>
<g>
	<g>
		<path d="M271.686,19.502c-4.071-4.09-10.687-4.104-14.778-0.033l-0.114,0.114c-4.089,4.071-4.103,10.687-0.032,14.777    c2.042,2.051,4.724,3.077,7.405,3.077c2.667,0,5.334-1.014,7.373-3.044l0.114-0.114C275.743,30.208,275.757,23.592,271.686,19.502    z" fill="#FFFFFF"/>
	</g>
</g>
<g>
	<g>
		<path d="M501.546,150.474H259.069c-2.089-11.65-7.651-22.379-16.197-30.926c-11.053-11.052-25.747-17.138-41.377-17.138    c-28.696,0-52.618,20.771-57.561,48.064h-18.257c8.865-10.524,13.705-23.695,13.704-37.614    c0.001-15.629-6.085-30.323-17.137-41.376c-11.052-11.053-25.747-17.138-41.376-17.138c-32.266,0-58.515,26.249-58.515,58.513    c-0.001,13.92,4.84,27.091,13.706,37.615H10.455c-5.77,0-10.449,4.678-10.449,10.449v56.423c0.008,0,0.017-0.001,0.025-0.001    c0,2.719,1.036,5.392,3.035,7.39l192.331,192.331v84.486c0,3.394,1.648,6.574,4.419,8.534c1.788,1.263,3.898,1.915,6.031,1.915    c1.172,0,2.352-0.197,3.488-0.6l100.308-35.526c4.171-1.477,6.96-5.423,6.96-9.849v-48.961l192.331-192.331    c1.998-1.999,3.034-4.672,3.035-7.39c0.009,0.001,0.017,0.001,0.025,0.001v-56.423    C511.995,155.153,507.316,150.474,501.546,150.474z M201.496,123.307c10.048,0,19.494,3.913,26.599,11.017    c4.568,4.568,7.808,10.107,9.545,16.15h-72.273C169.907,134.803,184.38,123.307,201.496,123.307z M80.867,75.245    c10.048,0,19.493,3.913,26.598,11.017c7.105,7.104,11.017,16.551,11.017,26.599c0,10.046-3.912,19.492-11.017,26.596    c-7.105,7.105-16.552,11.018-26.599,11.018c-10.046-0.002-19.492-3.915-26.598-11.019c-7.106-7.105-11.018-16.551-11.018-26.596    C43.25,92.119,60.124,75.245,80.867,75.245z M298.765,405.349c-1.959,1.959-3.06,4.617-3.06,7.388v45.904l-79.41,28.125v-74.029    c0-2.771-1.101-5.429-3.06-7.388L35.681,227.795H476.32L298.765,405.349z M491.098,206.897H20.904v-35.526h470.194V206.897z" fill="#FFFFFF"/>
	</g>
</g>
<g>
</g>
<g>
</g>
<g>
</g>
<g>
</g>
<g>
</g>
<g>
</g>
<g>
</g>
<g>
</g>
<g>
</g>
<g>
</g>
<g>
</g>
<g>
</g>
<g>
</g>
<g>
</g>
<g>
</g>
</svg>
