<?xml version="1.0" encoding="iso-8859-1"?>
<!-- Generator: Adobe Illustrator 19.0.0, SVG Export Plug-In . SVG Version: 6.00 Build 0)  -->
<svg version="1.1" id="Capa_1" xmlns="http://www.w3.org/2000/svg" xmlns:xlink="http://www.w3.org/1999/xlink" x="0px" y="0px"
	 viewBox="0 0 512 512" style="enable-background:new 0 0 512 512;" xml:space="preserve">
<g>
	<g>
		<path d="M437.02,74.981C388.668,26.629,324.38,0,256,0S123.333,26.629,74.98,74.981C26.629,123.333,0,187.62,0,256
			s26.629,132.667,74.98,181.019C123.333,485.371,187.62,512,256,512s132.668-26.629,181.02-74.981
			C485.372,388.667,512,324.38,512,256S485.371,123.333,437.02,74.981z M256,497C123.112,497,15,388.888,15,256S123.112,15,256,15
			s241,108.112,241,241S388.888,497,256,497z"/>
	</g>
</g>
<g>
	<g>
		<path d="M415.806,96.194C373.12,53.508,316.366,30,256,30c-54.612,0-107.335,19.748-148.458,55.605
			c-3.122,2.722-3.446,7.46-0.724,10.582c2.722,3.122,7.46,3.445,10.582,0.724C155.791,63.436,205.013,45,256,45
			c116.346,0,211,94.654,211,211s-94.654,211-211,211S45,372.346,45,256c0-50.987,18.436-100.209,51.911-138.6
			c2.722-3.122,2.398-7.86-0.724-10.582s-7.859-2.399-10.582,0.724C49.748,148.664,30,201.388,30,256
			c0,60.367,23.508,117.12,66.194,159.806C138.88,458.492,195.633,482,256,482c60.366,0,117.12-23.508,159.806-66.194
			C458.492,373.12,482,316.367,482,256S458.492,138.88,415.806,96.194z"/>
	</g>
</g>
<g>
	<g>
		<path d="M311.029,113.562c-1.821-0.374-3.684-0.563-5.535-0.563c-11.012,0-20.931,6.543-25.271,16.669L256,186.189l-24.224-56.521
			c-4.339-10.126-14.257-16.67-25.267-16.67c-1.853,0-3.717,0.19-5.539,0.564C188.24,116.175,179,127.504,179,140.5v231
			c0,15.164,12.336,27.5,27.5,27.5s27.5-12.336,27.5-27.5v-98.994c5.116,6.828,13.209,10.994,22,10.994
			c8.79,0,16.884-4.166,22-10.994V371.5c0,15.164,12.337,27.5,27.5,27.5c15.163,0,27.5-12.336,27.5-27.5v-231
			C333,127.504,323.76,116.175,311.029,113.562z M318,371.5c0,6.893-5.607,12.5-12.5,12.5s-12.5-5.607-12.5-12.5V237.938
			c0-3.561-2.504-6.631-5.992-7.347c-0.505-0.104-1.011-0.154-1.511-0.154c-2.95,0-5.691,1.748-6.891,4.546l-11.117,25.941
			c-1.973,4.602-6.482,7.576-11.489,7.576s-9.517-2.974-11.489-7.576l-11.117-25.94c-1.402-3.273-4.911-5.108-8.401-4.393
			c-3.488,0.716-5.992,3.786-5.992,7.347V371.5c0,6.893-5.607,12.5-12.5,12.5s-12.5-5.607-12.5-12.5v-231
			c0-5.907,4.2-11.057,9.987-12.245c0.832-0.171,1.681-0.258,2.522-0.258c5.001,0,9.507,2.975,11.479,7.578l31.117,72.606
			c1.182,2.758,3.894,4.546,6.894,4.546s5.712-1.788,6.894-4.546l31.117-72.606c1.973-4.603,6.48-7.578,11.483-7.578
			c0.841,0,1.688,0.086,2.52,0.257C313.8,129.443,318,134.593,318,140.5V371.5z"/>
	</g>
</g>
<g>
</g>
<g>
</g>
<g>
</g>
<g>
</g>
<g>
</g>
<g>
</g>
<g>
</g>
<g>
</g>
<g>
</g>
<g>
</g>
<g>
</g>
<g>
</g>
<g>
</g>
<g>
</g>
<g>
</g>
</svg>
