<svg id="Layer_1" data-name="Layer 1" xmlns="http://www.w3.org/2000/svg" xmlns:xlink="http://www.w3.org/1999/xlink" viewBox="0 0 411 726"><defs><style>.cls-1{fill:url(#linear-gradient);}.cls-2{fill:#fff;}.cls-3{fill:#2a7099;}</style><linearGradient id="linear-gradient" x1="205.5" y1="8.97" x2="205.5" y2="734.97" gradientTransform="translate(0 -4)" gradientUnits="userSpaceOnUse"><stop offset="0" stop-color="#7ee3b8"/><stop offset="1" stop-color="#1f6195"/><stop offset="1" stop-color="#fff" stop-opacity="0"/></linearGradient></defs><title>bgwhite</title><path class="cls-1" d="M392.73,688.52c0-9.63-10.4-16.19-19.5-13.11-14.4,4.77-34.1,9.24-49.7,4.77-28-7.95-82-38.34-118.8-38.44-49.1-.1-87,29.79-112,34.76-15.4,3.08-40.7-1.09-57.9-4.67C26,670,17.53,677.1,18.33,686l3.4,39.63h371V688.52ZM0,0V726H411V0Z"/><rect class="cls-2" x="20" y="21.99" width="371" height="682.02" rx="35" ry="35"/><path class="cls-3" d="M.5,726h410V642.8c-21.33,11.34-78.6,27.22-137,0-21.67-12.68-80.4-30.42-142,0-22.33,9.62-79.8,23.1-131,0Z"/></svg>