<svg width="159" height="62" viewBox="0 0 159 62" fill="none" xmlns="http://www.w3.org/2000/svg">
<g id="Find traveler button">
<g id="Group">
<g id="Rectangle 3" filter="url(#filter0_d)">
<rect x="2" width="155" height="56" rx="28" fill="#E59A03"/>
</g>
<path id="Rectangle 3.1" d="M85 0H129C144.464 0 157 12.536 157 28C157 43.464 144.464 56 129 56H85V0Z" fill="white"/>
<path id="Find" d="M23.2734 38V20.832H34.4766L34.0195 23.3867H27.4102V27.9453H33.1758L32.7539 30.3242H27.4102V38H23.2734ZM37.8242 25.5781H41.8906V38H37.8242V25.5781ZM39.8047 23.6211C39.4531 23.6211 39.1367 23.5703 38.8555 23.4688C38.5742 23.3672 38.332 23.2266 38.1289 23.0469C37.9336 22.8672 37.7812 22.6562 37.6719 22.4141C37.5625 22.1719 37.5078 21.9102 37.5078 21.6289C37.5078 21.3398 37.5664 21.0703 37.6836 20.8203C37.8086 20.5703 37.9766 20.3516 38.1875 20.1641C38.3984 19.9766 38.6523 19.8281 38.9492 19.7188C39.2461 19.6094 39.5703 19.5547 39.9219 19.5547C40.2656 19.5547 40.5781 19.6094 40.8594 19.7188C41.1484 19.8203 41.3906 19.9609 41.5859 20.1406C41.7891 20.3203 41.9453 20.5312 42.0547 20.7734C42.1641 21.0156 42.2188 21.2773 42.2188 21.5586C42.2188 21.8477 42.1562 22.1172 42.0312 22.3672C41.9141 22.6172 41.75 22.8359 41.5391 23.0234C41.3281 23.2109 41.0742 23.3594 40.7773 23.4688C40.4805 23.5703 40.1562 23.6211 39.8047 23.6211ZM45.8945 25.5781H49.3281L49.8203 27.6172C50.0859 27.3828 50.3828 27.1328 50.7109 26.8672C51.0469 26.6016 51.4062 26.3555 51.7891 26.1289C52.1797 25.9023 52.5938 25.7148 53.0312 25.5664C53.4688 25.418 53.9258 25.3438 54.4023 25.3438C54.9805 25.3438 55.5039 25.4492 55.9727 25.6602C56.4492 25.8633 56.8555 26.1523 57.1914 26.5273C57.5352 26.9023 57.8008 27.3555 57.9883 27.8867C58.1758 28.4102 58.2695 28.9922 58.2695 29.6328V38H54.1914V30.2188C54.1914 29.8672 54.1406 29.5586 54.0391 29.293C53.9453 29.0273 53.8125 28.8047 53.6406 28.625C53.4766 28.4453 53.2812 28.3125 53.0547 28.2266C52.8281 28.1328 52.5859 28.0859 52.3281 28.0859C51.8984 28.0859 51.4883 28.1914 51.0977 28.4023C50.7148 28.6133 50.3359 28.8789 49.9609 29.1992V38H45.8945V25.5781ZM70.5352 28.2383C70.168 28.082 69.8398 27.9805 69.5508 27.9336C69.2695 27.8867 69.0391 27.8633 68.8594 27.8633C68.3281 27.8633 67.8633 27.9727 67.4648 28.1914C67.0742 28.4102 66.7461 28.707 66.4805 29.082C66.2227 29.4492 66.0273 29.8789 65.8945 30.3711C65.7695 30.8633 65.707 31.3828 65.707 31.9297C65.707 32.4609 65.7656 32.9453 65.8828 33.3828C66 33.8203 66.1641 34.1992 66.375 34.5195C66.5938 34.832 66.8516 35.0742 67.1484 35.2461C67.4453 35.418 67.7773 35.5039 68.1445 35.5039C68.5508 35.5039 68.9648 35.4023 69.3867 35.1992C69.8086 34.9883 70.1914 34.7031 70.5352 34.3438V28.2383ZM70.5352 19.2266H74.6133V38H71.1328L70.6758 36.0781C70.3867 36.3359 70.082 36.5938 69.7617 36.8516C69.4492 37.1094 69.1133 37.3398 68.7539 37.543C68.4023 37.7461 68.0273 37.9102 67.6289 38.0352C67.2305 38.168 66.8047 38.2344 66.3516 38.2344C65.6016 38.2344 64.9297 38.0703 64.3359 37.7422C63.7422 37.4062 63.2344 36.9648 62.8125 36.418C62.3984 35.8633 62.082 35.2344 61.8633 34.5312C61.6445 33.8281 61.5352 33.1016 61.5352 32.3516C61.5352 31.6953 61.6172 31.0664 61.7812 30.4648C61.9453 29.8633 62.1797 29.3047 62.4844 28.7891C62.7891 28.2656 63.1523 27.793 63.5742 27.3711C64.0039 26.9492 64.4766 26.5898 64.9922 26.293C65.5156 25.9883 66.0742 25.7539 66.668 25.5898C67.2695 25.4258 67.8945 25.3438 68.543 25.3438C68.9414 25.3438 69.3203 25.3711 69.6797 25.4258C70.0391 25.4805 70.3242 25.5391 70.5352 25.6016V19.2266Z" fill="white"/>
</g>
<g id="Search icon">
<path id="Vector" d="M138.214 45.3699L131.693 38.8519C131.872 38.5791 131.842 38.2092 131.602 37.9693C131.362 37.7296 130.992 37.6992 130.719 37.8784L128.979 36.1391C130.28 34.2092 131.099 31.9739 131.335 29.6426C131.66 26.4495 130.887 23.2128 129.16 20.5285C128.95 20.2019 128.515 20.1075 128.188 20.3174C127.862 20.5275 127.767 20.9625 127.977 21.289C131.207 26.3088 130.481 33.0202 126.252 37.2472C121.261 42.2359 113.14 42.2359 108.149 37.2472C103.158 32.2586 103.158 24.1414 108.149 19.1527C112.383 14.9212 118.884 14.1716 123.958 17.3294C124.288 17.5345 124.722 17.4338 124.927 17.1042C125.132 16.7747 125.031 16.3411 124.702 16.1359C122.024 14.4695 118.812 13.7403 115.659 14.0825C112.457 14.4301 109.437 15.8777 107.155 18.1585C101.615 23.6954 101.615 32.7046 107.155 38.2414C109.924 41.0099 113.563 42.3941 117.201 42.3941C119.973 42.3941 122.744 41.5897 125.132 39.9829L126.863 41.7135C126.603 41.989 126.607 42.4229 126.877 42.6926C127.014 42.8299 127.194 42.8985 127.374 42.8985C127.548 42.8985 127.721 42.834 127.856 42.7063L134.368 49.2147C134.892 49.7385 135.581 50 136.272 50C136.969 50 137.668 49.7334 138.201 49.201C139.261 48.1409 139.267 46.4223 138.214 45.3699ZM126.583 39.4453L128.44 37.5889L129.714 38.8623L127.857 40.7187L126.583 39.4453ZM137.206 48.2067C136.694 48.7186 135.867 48.7247 135.362 48.2204L128.852 41.7128L130.709 39.8564L137.22 46.364C137.724 46.8684 137.718 47.6949 137.206 48.2067Z" fill="#E59A03"/>
<path id="Vector_2" d="M127.264 18.1754L127.249 18.1601C126.975 17.8848 126.53 17.8835 126.254 18.1571C125.979 18.4308 125.978 18.8759 126.251 19.1513L126.27 19.1697C126.407 19.307 126.587 19.3756 126.767 19.3756C126.947 19.3756 127.127 19.307 127.264 19.1697C127.539 18.8952 127.539 18.45 127.264 18.1754Z" fill="#E59A03"/>
<path id="Vector_3" d="M117.201 17.3738C111.228 17.3738 106.369 22.2305 106.369 28.2002C106.369 34.1698 111.228 39.0265 117.201 39.0265C123.173 39.0265 128.032 34.1698 128.032 28.2002C128.032 22.2305 123.173 17.3738 117.201 17.3738ZM117.201 37.6205C112.004 37.6205 107.776 33.3946 107.776 28.2002C107.776 23.0057 112.004 18.7798 117.201 18.7798C122.397 18.7798 126.625 23.0057 126.625 28.2002C126.625 33.3946 122.397 37.6205 117.201 37.6205Z" fill="#E59A03"/>
<path id="Vector_4" d="M119.878 27.2866C120.316 26.7173 120.577 26.0055 120.577 25.2334V24.3126C120.577 22.4519 119.063 20.9381 117.201 20.9381C115.34 20.9381 113.825 22.4519 113.825 24.3126V25.2334C113.825 26.0055 114.087 26.7174 114.525 27.2866C112.288 27.7082 110.59 29.6748 110.59 32.0315V32.3948C110.59 32.783 110.905 33.0978 111.293 33.0978H123.109C123.498 33.0978 123.813 32.783 123.813 32.3948V32.0315C123.813 29.6749 122.115 27.7083 119.878 27.2866ZM115.232 24.3126C115.232 23.2272 116.115 22.3442 117.201 22.3442C118.287 22.3442 119.171 23.2272 119.171 24.3126V25.2334C119.171 26.3187 118.287 27.2018 117.201 27.2018C116.115 27.2018 115.232 26.3187 115.232 25.2334V24.3126ZM112.013 31.6917C112.185 29.9628 113.648 28.6078 115.422 28.6078H118.981C120.755 28.6078 122.218 29.9628 122.389 31.6917H112.013Z" fill="#E59A03"/>
<path id="Vector_5" d="M134.106 14.8425C133.717 14.8425 133.402 15.1572 133.402 15.5455V16.4194C133.402 16.8076 133.717 17.1223 134.106 17.1223C134.494 17.1223 134.809 16.8076 134.809 16.4194V15.5456C134.809 15.1572 134.494 14.8425 134.106 14.8425Z" fill="#E59A03"/>
<path id="Vector_6" d="M134.106 19.0305C133.717 19.0305 133.402 19.3452 133.402 19.7335V20.6073C133.402 20.9956 133.717 21.3103 134.106 21.3103C134.494 21.3103 134.809 20.9956 134.809 20.6073V19.7336C134.809 19.3453 134.494 19.0305 134.106 19.0305Z" fill="#E59A03"/>
<path id="Vector_7" d="M136.638 17.3738H135.764C135.375 17.3738 135.061 17.6885 135.061 18.0768C135.061 18.465 135.375 18.7797 135.764 18.7797H136.638C137.027 18.7797 137.341 18.465 137.341 18.0768C137.341 17.6885 137.027 17.3738 136.638 17.3738Z" fill="#E59A03"/>
<path id="Vector_8" d="M132.448 17.3738H131.573C131.185 17.3738 130.87 17.6885 130.87 18.0768C130.87 18.465 131.185 18.7797 131.573 18.7797H132.448C132.836 18.7797 133.151 18.465 133.151 18.0768C133.151 17.6885 132.836 17.3738 132.448 17.3738Z" fill="#E59A03"/>
<path id="Vector_9" d="M107.349 42.9694C106.96 42.9694 106.646 43.2841 106.646 43.6723V44.5462C106.646 44.9345 106.96 45.2492 107.349 45.2492C107.737 45.2492 108.052 44.9345 108.052 44.5462V43.6723C108.052 43.2841 107.737 42.9694 107.349 42.9694Z" fill="#E59A03"/>
<path id="Vector_10" d="M107.349 47.1573C106.96 47.1573 106.646 47.4721 106.646 47.8603V48.7342C106.646 49.1224 106.96 49.4372 107.349 49.4372C107.737 49.4372 108.052 49.1224 108.052 48.7342V47.8603C108.052 47.4721 107.737 47.1573 107.349 47.1573Z" fill="#E59A03"/>
<path id="Vector_11" d="M109.881 45.5002H109.007C108.618 45.5002 108.303 45.815 108.303 46.2032C108.303 46.5915 108.618 46.9062 109.007 46.9062H109.881C110.269 46.9062 110.584 46.5915 110.584 46.2032C110.584 45.815 110.269 45.5002 109.881 45.5002Z" fill="#E59A03"/>
<path id="Vector_12" d="M105.691 45.5002H104.817C104.429 45.5002 104.114 45.815 104.114 46.2032C104.114 46.5915 104.429 46.9062 104.817 46.9062H105.691C106.08 46.9062 106.395 46.5915 106.395 46.2032C106.395 45.815 106.08 45.5002 105.691 45.5002Z" fill="#E59A03"/>
</g>
</g>
<defs>
<filter id="filter0_d" x="0" y="0" width="159" height="62" filterUnits="userSpaceOnUse" color-interpolation-filters="sRGB">
<feFlood flood-opacity="0" result="BackgroundImageFix"/>
<feColorMatrix in="SourceAlpha" type="matrix" values="0 0 0 0 0 0 0 0 0 0 0 0 0 0 0 0 0 0 127 0"/>
<feOffset dy="4"/>
<feGaussianBlur stdDeviation="1"/>
<feColorMatrix type="matrix" values="0 0 0 0 0 0 0 0 0 0 0 0 0 0 0 0 0 0 0.25 0"/>
<feBlend mode="normal" in2="BackgroundImageFix" result="effect1_dropShadow"/>
<feBlend mode="normal" in="SourceGraphic" in2="effect1_dropShadow" result="shape"/>
</filter>
</defs>
</svg>
