<svg width="40" height="41" viewBox="0 0 40 41" fill="none" xmlns="http://www.w3.org/2000/svg">
<path d="M20 0C8.97201 0 0 8.99057 0 20.0414C0 31.0922 8.97201 40.0827 20 40.0827C31.028 40.0827 40 31.0922 40 20.0414C40 8.99057 31.0281 0 20 0ZM20 37.9161C15.1003 37.9161 10.6562 35.926 7.42915 32.7107C6.14049 31.4266 5.04655 29.9468 4.19479 28.3205C2.89761 25.8438 2.16219 23.0272 2.16219 20.0414C2.16219 10.1852 10.1642 2.16666 20 2.16666C24.6653 2.16666 28.9173 3.97149 32.0992 6.92005C33.749 8.44863 35.1113 10.2843 36.0936 12.3362C37.2112 14.6706 37.8378 17.284 37.8378 20.0414C37.8378 29.8975 29.8358 37.9161 20 37.9161Z" fill="black"/>
<path d="M13.1635 15.4919C14.3257 15.4919 15.2712 16.3852 15.2712 17.6039H17.4334C17.4334 15.1664 15.518 13.3252 13.1635 13.3252C10.809 13.3252 8.89355 15.1664 8.89355 17.6039H11.0557C11.0557 16.3852 12.0014 15.4919 13.1635 15.4919Z" fill="black"/>
<path d="M26.8358 15.4919C27.998 15.4919 28.9436 16.3852 28.9436 17.6039H31.1058C31.1058 15.1664 29.1903 13.3252 26.8358 13.3252C24.4813 13.3252 22.5659 15.1664 22.5659 17.6039H24.7281C24.7281 16.3852 25.6737 15.4919 26.8358 15.4919Z" fill="black"/>
<path d="M19.9617 31.1451C24.1447 31.1451 28.1536 29.0015 30.4489 25.4423L28.6328 24.2664C26.5252 27.5346 22.6686 29.3587 18.8093 28.9122C15.8008 28.5646 13.0188 26.8278 11.367 24.2664L9.55103 25.4423C11.5497 28.5419 14.9181 30.6435 18.5614 31.0645C19.0291 31.1187 19.4962 31.1451 19.9617 31.1451Z" fill="black"/>
</svg>
