<svg width="86" height="90" viewBox="0 0 86 90" fill="none" xmlns="http://www.w3.org/2000/svg">
<g filter="url(#filter0_d)">
<ellipse cx="43" cy="41.1111" rx="40" ry="41.1111" fill="#E8630A"/>
</g>
<path d="M66.7326 16.3434C60.3934 9.97449 51.9648 6.46692 42.9997 6.46692C34.0347 6.46692 25.6063 9.97449 19.2669 16.3434C12.9278 22.7124 9.43652 31.1802 9.43652 40.1873C9.43652 49.1943 12.9278 57.6622 19.2669 64.0311C25.6063 70.4 34.0347 73.9076 42.9997 73.9076C51.9648 73.9076 60.3934 70.4 66.7326 64.0311C73.0719 57.6622 76.563 49.1943 76.563 40.1873C76.563 31.1802 73.0717 22.7124 66.7326 16.3434ZM42.9997 71.9318C25.5773 71.9318 11.4031 57.6913 11.4031 40.1873C11.4031 22.6832 25.5773 8.44272 42.9997 8.44272C60.4222 8.44272 74.5964 22.6832 74.5964 40.1873C74.5964 57.6913 60.4222 71.9318 42.9997 71.9318Z" fill="#E59A03"/>
<path d="M63.9517 19.1375C58.3553 13.5149 50.9145 10.4185 43.0001 10.4185C35.8402 10.4185 28.9278 13.0197 23.5364 17.7428C23.1271 18.1013 23.0846 18.7254 23.4414 19.1366C23.7983 19.5478 24.4195 19.5904 24.8288 19.232C29.8621 14.8227 36.3154 12.3943 43.0001 12.3943C58.2538 12.3943 70.6636 24.8621 70.6636 40.1872C70.6636 55.5123 58.2538 67.9802 43.0001 67.9802C27.7465 67.9802 15.3367 55.5123 15.3367 40.1872C15.3367 33.4712 17.7538 26.9877 22.1426 21.9308C22.4994 21.5196 22.457 20.8955 22.0477 20.5369C21.6383 20.1784 21.0173 20.2209 20.6603 20.6323C15.9592 26.0489 13.3701 32.9937 13.3701 40.1872C13.3701 48.1388 16.4522 55.6143 22.0486 61.2369C27.645 66.8595 35.0857 69.956 43.0001 69.956C50.9145 69.956 58.3553 66.8595 63.9517 61.2369C69.5481 55.6143 72.6302 48.1388 72.6302 40.1872C72.6302 32.2357 69.5481 24.7601 63.9517 19.1375Z" fill="#E59A03"/>
<path d="M50.2151 21.4251C49.9764 21.3759 49.7321 21.351 49.4894 21.351C48.0457 21.351 46.7452 22.2128 46.1762 23.5466L43.0005 30.9916L39.8245 23.5466C39.2557 22.2128 37.9554 21.3508 36.5119 21.3508C36.2689 21.3508 36.0246 21.3759 35.7857 21.4251C34.1167 21.7693 32.9053 23.2616 32.9053 24.9734V55.4007C32.9053 57.3981 34.5226 59.023 36.5107 59.023C38.4988 59.023 40.1161 57.3981 40.1161 55.4007V42.3612C40.7869 43.2606 41.8479 43.8094 43.0005 43.8094C44.1529 43.8094 45.2141 43.2606 45.8848 42.3612V55.4007C45.8848 57.3981 47.5023 59.023 49.4902 59.023C51.4782 59.023 53.0956 57.3981 53.0956 55.4007V24.9734C53.0956 23.2616 51.8842 21.7693 50.2151 21.4251ZM51.1291 55.4007C51.1291 56.3087 50.3939 57.0472 49.4902 57.0472C48.5865 57.0472 47.8514 56.3087 47.8514 55.4007V37.8079C47.8514 37.3389 47.5231 36.9345 47.0658 36.8402C46.9996 36.8265 46.9333 36.8199 46.8677 36.8199C46.4809 36.8199 46.1216 37.0502 45.9642 37.4187L44.5067 40.8357C44.2481 41.4418 43.6569 41.8336 43.0005 41.8336C42.344 41.8336 41.7527 41.4418 41.4942 40.8357L40.0367 37.4188C39.8529 36.9877 39.3928 36.746 38.9352 36.8402C38.4779 36.9345 38.1497 37.3389 38.1497 37.8079V55.4007C38.1497 56.3087 37.4145 57.0472 36.5108 57.0472C35.6071 57.0472 34.872 56.3087 34.872 55.4007V24.9734C34.872 24.1953 35.4226 23.517 36.1814 23.3605C36.2904 23.338 36.4017 23.3265 36.512 23.3265C37.1677 23.3265 37.7584 23.7184 38.017 24.3247L42.0966 33.8883C42.2516 34.2516 42.6071 34.4871 43.0005 34.4871C43.3938 34.4871 43.7493 34.2516 43.9043 33.8883L47.9839 24.3247C48.2426 23.7184 48.8335 23.3265 49.4894 23.3265C49.5997 23.3265 49.7107 23.3378 49.8198 23.3604C50.5784 23.517 51.1291 24.1953 51.1291 24.9734V55.4007Z" fill="#E59A03"/>
<defs>
<filter id="filter0_d" x="0" y="0" width="86" height="89.2222" filterUnits="userSpaceOnUse" color-interpolation-filters="sRGB">
<feFlood flood-opacity="0" result="BackgroundImageFix"/>
<feColorMatrix in="SourceAlpha" type="matrix" values="0 0 0 0 0 0 0 0 0 0 0 0 0 0 0 0 0 0 127 0"/>
<feOffset dy="4"/>
<feGaussianBlur stdDeviation="1.5"/>
<feColorMatrix type="matrix" values="0 0 0 0 0 0 0 0 0 0 0 0 0 0 0 0 0 0 0.25 0"/>
<feBlend mode="normal" in2="BackgroundImageFix" result="effect1_dropShadow"/>
<feBlend mode="normal" in="SourceGraphic" in2="effect1_dropShadow" result="shape"/>
</filter>
</defs>
</svg>
