<svg width="40" height="40" viewBox="0 0 40 40" fill="none" xmlns="http://www.w3.org/2000/svg">
<path d="M0.5 20C0.5 9.24864 9.24864 0.5 20 0.5C30.7514 0.5 39.5 9.24864 39.5 20C39.5 30.7514 30.7514 39.5 20 39.5C9.24864 39.5 0.5 30.7514 0.5 20ZM2 20C2 29.9261 10.0739 38 20 38C29.9261 38 38 29.9261 38 20C38 10.0739 29.9261 2 20 2C10.0739 2 2 10.0739 2 20Z" fill="#D06060" stroke="black"/>
<path d="M9.25 15.0001C9.25 13.2088 10.7086 11.7501 12.5 11.7501C14.2914 11.7501 15.75 13.2088 15.75 15.0001C15.75 16.7915 14.2914 18.2501 12.5 18.2501C10.7086 18.2501 9.25 16.7915 9.25 15.0001ZM10.75 15.0001C10.75 15.9663 11.5339 16.7501 12.5 16.7501C13.4661 16.7501 14.25 15.9663 14.25 15.0001C14.25 14.034 13.4661 13.2501 12.5 13.2501C11.5339 13.2501 10.75 14.034 10.75 15.0001Z" fill="#D06060" stroke="black"/>
<path d="M11.5168 29.0135C16.194 24.3363 23.8099 24.3363 28.4872 29.0135C28.7791 29.3055 28.7794 29.7808 28.488 30.0731C28.3397 30.2194 28.1477 30.2925 27.9557 30.2925C27.761 30.2925 27.5704 30.2201 27.4243 30.0739C23.3314 25.9786 16.6698 25.9788 12.5747 30.0739C12.2824 30.3662 11.8065 30.3662 11.5143 30.0739C11.2227 29.7824 11.2214 29.3089 11.5168 29.0135Z" fill="#D06060" stroke="black"/>
<path d="M24.25 15.0001C24.25 13.2088 25.7086 11.7501 27.5 11.7501C29.2914 11.7501 30.75 13.2088 30.75 15.0001C30.75 16.7915 29.2914 18.2501 27.5 18.2501C25.7086 18.2501 24.25 16.7915 24.25 15.0001ZM25.75 15.0001C25.75 15.9663 26.5339 16.7501 27.5 16.7501C28.4661 16.7501 29.25 15.9663 29.25 15.0001C29.25 14.034 28.4661 13.2501 27.5 13.2501C26.5339 13.2501 25.75 14.034 25.75 15.0001Z" fill="#D06060" stroke="black"/>
</svg>
